<?xml version="1.0" encoding="utf-8"?>
<!-- Generator: Adobe Illustrator 19.1.0, SVG Export Plug-In . SVG Version: 6.00 Build 0)  -->
<!DOCTYPE svg PUBLIC "-//W3C//DTD SVG 1.1//EN" "http://www.w3.org/Graphics/SVG/1.1/DTD/svg11.dtd">
<svg version="1.1" id="Layer_1" xmlns="http://www.w3.org/2000/svg" xmlns:xlink="http://www.w3.org/1999/xlink" x="0px" y="0px"
	 viewBox="0 0 961.7 211.5" style="enable-background:new 0 0 961.7 211.5;" xml:space="preserve">
<g>
	<path d="M174.6,2.6c-23.1,3.9-46.6,3.9-69.7,0l-0.5-0.1l-0.2,0c-1.7,0-3,1.3-3,3v8.9h2.8c6.8-0.1,10.8,0.9,13.3,3.3
		c3,2.9,4.3,8.4,4.4,18.7V70l-65.6-3.9V36.5c0.1-10.3,1.4-15.8,4.4-18.7c2.5-2.4,6.5-3.5,13.3-3.3h2.8V5.5c0-1.7-1.3-3-3-3l-0.9,0.1
		c-23.6,3.9-47.5,3.7-71-0.4L0,1.8v12.6l3.1,0c6.7-0.2,10.7,0.7,13.2,3.2c3.1,3,4.4,8.4,4.5,18.9v84.1c0.1,10-1.3,15.9-4.7,19.2
		c-2.6,2.6-6.6,3.7-12.6,3.5H0v8.6c0,0.9,0.4,1.7,1.1,2.3c0.5,0.5,1.2,0.7,1.9,0.7c0.2,0,0.3,0,0.5,0l0.2,0
		c23.1-3.7,46.5-3.7,69.6,0c0.9,0.1,1.8-0.1,2.4-0.7c0.7-0.6,1.1-1.4,1.1-2.3v-8.6l-3.1,0c-6,0.2-10.1-0.9-12.8-3.6
		c-3.4-3.3-4.9-9.2-4.7-19.2V81.8h65.6v38.8c0.1,9.9-1.3,15.8-4.7,19.2c-2.7,2.6-6.7,3.8-12.8,3.6h-3v8.6c0,0.9,0.4,1.7,1.1,2.3
		s1.6,0.8,2.4,0.7l0.2,0c23.1-3.7,46.5-3.7,69.7,0c0.9,0.1,1.8-0.1,2.4-0.7c0.7-0.6,1.1-1.4,1.1-2.3v-8.6l-3.5,0
		c-6,0.2-10-0.9-12.6-3.5c-3.4-3.3-4.8-9.2-4.7-19.2V36.5c0.1-10.5,1.4-15.9,4.5-18.9c2.5-2.4,6.5-3.4,13.2-3.2h3V5.5
		c0-0.9-0.4-1.7-1-2.3C176.4,2.6,175.5,2.4,174.6,2.6z"/>
	<path d="M218.2,36.6c10,0,18.2-8.2,18.2-18.2c0-10.3-7.9-18.4-17.9-18.4c-10,0-18.2,8.1-18.2,17.9
		C200.2,28.2,208.3,36.6,218.2,36.6z"/>
	<path d="M234.3,126V61.5c0-1.7-1.3-3-3-3l-0.2,0c-6.9,1.7-33.4,6.2-42.5,7.3c-1.5,0.2-2.6,1.5-2.6,3v8.9h3.7
		c5-0.1,8.2,0.7,10.1,2.6c2.4,2.3,3.4,6.6,3.4,14.5l0,31.2c-0.5,15.5-3.1,17.6-13.2,17.8H186v8.5c0,1.7,1.3,3,3,3l0.5-0.1
		c18.8-3.9,38-3.9,56.8,0.1l0.2,0c1.7,0,3-1.3,3-3v-8.5h-2.3C237.5,143.5,234.8,141.3,234.3,126z"/>
	<path d="M359.4,58.8c-6.2,0-11.5,2.7-19.5,9.8c-8.4-6.8-19.2-10.1-33-10.1c-27.5,0-46,13.4-46,33.3c0,13.5,8.4,25.3,21.7,30.8
		c-13.5,4-19.9,10.9-19.9,21.6c0,15.6,13.7,22.9,43,22.9c12.4,0,18.7,0.2,25.4,1.3c8.5,1.3,13.2,5.6,13.2,12.1
		c0,12.3-13.6,19.6-36.5,19.6c-19.8,0-31.5-6.3-31.5-16.9c0-1.6,0.2-3.1,0.8-4.7c0.6-2,0.3-4.1-1-5.8c-1.2-1.7-3.2-2.7-5.3-2.7
		c-7.4,0-13.4,6.5-13.4,14.6c0,7.8,5,15.4,12.9,19.9c8,4.6,20.4,6.9,36.7,6.9c36,0,56.6-14.1,56.6-38.7c0-14.1-7.2-24.3-20.4-28.7
		c-9.1-3-14.5-3.4-38.7-3.4c0,0,0,0,0,0c-19.1-0.5-21.6-1.5-21.6-5.3c0-5.2,7.3-8,20.5-8c29.9-0.2,47.8-13.4,47.8-35.1
		c0-5.8-1.5-11-4.7-16.4c2.1-2.2,3.6-3,5.3-3c1.4,0,2.3,0.4,4.4,2.8c2.4,2.8,4.4,4,7.1,4c4.8,0,8.2-3.8,8.2-9.4
		C371.5,63.2,366.8,58.8,359.4,58.8z M306.5,115c-10,0-15-8-15-23.6c0-13.2,5.5-21.1,14.6-21.1c9.6,0,14.8,7.6,14.8,21.4
		C320.9,107.2,316.1,115,306.5,115z"/>
	<path d="M483.8,126V97c0-12.2-1.1-18.8-4.2-24.2c-4.9-8.7-16.2-14.3-28.7-14.3c-12.8,0-23.5,5-32.7,15.2l0.2-70.2
		c0-0.9-0.4-1.8-1.1-2.4s-1.6-0.8-2.5-0.6l-0.1,0c-8.2,2.8-23,5.3-39.8,6.7h0c-1.6,0.1-2.8,1.4-2.8,3v8.7l1.9,0
		c10.9,0.4,12.8,2.8,13,15.9l0,91c-0.4,14.9-2.4,17.6-13,17.8H372v8.5c0,1.7,1.3,3,3,3l0.2,0c17-3.9,35-3.9,52.1,0l0.2,0
		c1.7,0,3-1.3,3-3v-8.5l-1.6,0c-8.9-0.6-10.2-2.8-10.6-17.8V90.8c6.9-10.8,13.5-15.6,21.4-15.6c8.9,0,12.6,5.3,12.6,18.4l0,32.3
		c-0.5,15.5-2.1,17-10.2,17.6l-2.4,0.3v8.4c0,1.7,1.3,3,3,3l0.2,0c16.9-3.9,34.9-3.9,51.8-0.1l0.5,0.1l0.2,0c1.7,0,3-1.3,3-3v-8.5
		h-2.3C486.7,143.5,484.3,141.4,483.8,126z"/>
	<path d="M549.6,126l0.2-122.5c0-0.9-0.4-1.8-1.1-2.3s-1.6-0.8-2.6-0.6c-8.4,2.7-24,5.4-39.6,6.7c-1.6,0.1-2.7,1.4-2.7,3v8.7l1.9,0
		c10.7,0.4,12.6,2.8,12.8,16.2v90.8c-0.4,14.9-2.4,17.6-12.8,17.8h-2.6v8.5c0,1.7,1.3,3,3,3l0.2,0c18.6-4,37.4-4,55.9,0l0.2,0
		c1.7,0,3-1.3,3-3v-8.5h-2.6C552.5,143.7,549.8,140.1,549.6,126z"/>
	<path d="M618.7,126V61.9c0-0.9-0.4-1.7-1.1-2.3c-0.7-0.6-1.6-0.8-2.5-0.7c-6.4,1.6-31.8,5.9-42.1,6.9c-1.5,0.2-2.7,1.4-2.7,3v8.9
		h3.7c5-0.1,8.2,0.7,10.1,2.6c2.4,2.3,3.4,6.6,3.4,14.5v31.2c-0.5,15.5-3.1,17.6-13.2,17.8h-3.9v8.5c0,1.7,1.3,3,3,3l0.2,0
		c18.9-4,38.1-4,57.1,0l0.2,0c1.7,0,3-1.3,3-3v-8.5h-2.3C621.9,143.5,619.2,141.3,618.7,126z"/>
	<path d="M602.6,36.6c10,0,18.2-8.2,18.2-18.2c0-10.3-7.9-18.4-18-18.4c-10,0-18.2,8.1-18.2,17.9C584.6,28.2,592.7,36.6,602.6,36.6z
		"/>
	<path d="M743.8,58.8c-5.8,0-10.9,2.4-17.9,8.5c-0.9,0.8-2.3,0.8-3.3,0.1c-8.2-5.9-18.4-8.8-31.3-8.8c-27.5,0-46,13.4-46,33.3
		c0,11.6,6,21.8,16.4,28.1c0.9,0.5,1.3,1.4,1.3,2.4c-0.1,1-0.7,1.8-1.6,2.3c-9.6,4.1-14.2,10.5-14.2,19.6c0,15.6,13.7,22.9,43,22.9
		c12.4,0,18.7,0.2,25.4,1.3c8.5,1.3,13.2,5.6,13.2,12.1c0,12.3-13.7,19.6-36.5,19.6c-19.8,0-31.5-6.3-31.5-16.9
		c0-1.6,0.2-3.1,0.8-4.7c0.6-2,0.3-4.1-1-5.8c-1.2-1.7-3.2-2.7-5.3-2.7c-7.4,0-13.4,6.5-13.4,14.6c0,7.8,5,15.4,12.9,19.9
		c8,4.6,20.4,6.9,36.7,6.9c36,0,56.6-14.1,56.6-38.7c0-14.1-7.2-24.3-20.4-28.7c-9.1-3-14.5-3.4-38.7-3.4c0,0,0,0,0,0
		c-19.1-0.5-21.6-1.5-21.6-5.3c0-5.2,7.3-8,20.5-8c29.9-0.2,47.8-13.4,47.8-35.1c0-5.2-1.2-9.8-3.7-14.6c-0.6-1.1-0.4-2.5,0.6-3.3
		c1.3-1,2.4-1.5,3.7-1.5c1.4,0,2.3,0.4,4.4,2.8c2.4,2.8,4.4,4,7.1,4c4.8,0,8.2-3.8,8.2-9.4C755.9,63.2,751.2,58.8,743.8,58.8z
		 M691,115c-10,0-15-8-15-23.6c0-13.2,5.5-21.1,14.6-21.1c9.6,0,14.8,7.6,14.8,21.4C705.3,107.2,700.5,115,691,115z"/>
	<path d="M868.2,126V97c0-12.2-1.1-18.8-4.2-24.2c-4.9-8.7-16.2-14.3-28.7-14.3c-12.8,0-23.5,5-32.7,15.2l0.2-70.2
		c0-0.9-0.4-1.8-1.1-2.4c-0.7-0.6-1.7-0.8-2.5-0.6l-0.1,0c-8.3,2.8-23.5,5.4-39.7,6.7c-1.6,0.1-2.8,1.4-2.8,3v8.6l1.9,0
		c10.9,0.4,12.8,2.8,13.1,15.9v91c-0.4,14.9-2.4,17.6-13,17.8h-2.1v8.5c0,1.7,1.3,3,3,3l0.3-0.1c17-3.9,34.9-3.9,51.9,0l0.2,0
		c1.7,0,3-1.3,3-3v-8.5l-1.6,0c-8.9-0.6-10.2-2.8-10.6-17.8V90.8c6.9-10.8,13.5-15.6,21.4-15.6c8.9,0,12.6,5.3,12.6,18.4v32.3
		c-0.5,15.5-2.1,17-10.2,17.6l-2.4,0.3v8.4c0,1.7,1.3,3,3,3l0.2,0c17.1-3.9,35.2-3.9,52.3,0l0.2,0c1.7,0,3-1.3,3-3v-8.5l-2.3,0
		C871.1,143.5,868.7,141.4,868.2,126z"/>
	<path d="M961.5,138.9c-0.3-0.8-0.9-1.4-1.7-1.7l-4.8-1.8c-1.3-0.5-2.9,0-3.6,1.3c-3.2,5.2-6.3,7.4-10.7,7.4c-3.2,0-5.5-1.3-6.8-4
		c-1.9-3.1-2.1-5.2-2.1-17.1V74.1h24.3c1.7,0,3-1.3,3-3v-5.9c0-1.7-1.3-3-3-3h-24.3V35.5c0-1.7-1.3-3-3-3h-7.9l-0.1,0.8
		c-2.7,17.1-15.2,29-30.4,29c0,0-0.8,0-1.8-0.2l-1.2-0.2v9.2c0,1.7,1.3,3,3,3h10.3v51.4c0,21.8,10.1,33.3,29.2,33.3
		c14.2,0,26-6.5,31.6-17.5C961.8,140.6,961.8,139.7,961.5,138.9z"/>
</g>
</svg>
