<?xml version="1.0" encoding="utf-8"?>
<!-- Generator: Adobe Illustrator 19.1.0, SVG Export Plug-In . SVG Version: 6.00 Build 0)  -->
<!DOCTYPE svg PUBLIC "-//W3C//DTD SVG 1.1//EN" "http://www.w3.org/Graphics/SVG/1.1/DTD/svg11.dtd">
<svg version="1.1" id="Layer_1" xmlns="http://www.w3.org/2000/svg" xmlns:xlink="http://www.w3.org/1999/xlink" x="0px" y="0px"
	 viewBox="-331 333 136 136" style="enable-background:new -331 333 136 136;" xml:space="preserve">
<style type="text/css">
	.st0{fill:#1F1C30;}
	.st1{fill:#FFD963;}
	.st2{fill:#4BD96E;}
	.st3{fill:#5ABAF9;}
	.st4{fill:#FFAA00;}
	.st5{fill:#FF3651;}
	.st6{fill:#35334C;}
	.st7{display:none;}
	.st8{display:inline;}
	.st9{fill:#0A0A0A;}
	.st10{fill:#BABABA;}
</style>
<g>
	<path class="st0" d="M-195,426.5c0,17,0,25.5-8.5,34s-17,8.5-34,8.5h-51c-17,0-25.5,0-34-8.5s-8.5-17-8.5-34v-51
		c0-17,0-25.5,8.5-34s17-8.5,34-8.5h51c17,0,25.5,0,34,8.5s8.5,17,8.5,34V426.5z"/>
	<g>
		<g>
			<path class="st1" d="M-224.6,405.3h-76.8c-2.4,0-4.3-1.9-4.3-4.3s1.9-4.3,4.3-4.3h76.8c2.4,0,4.3,1.9,4.3,4.3
				C-220.3,403.4-222.2,405.3-224.6,405.3z"/>
		</g>
		<g>
			<path class="st2" d="M-284.3,422.3h-8.5c-2.4,0-4.3-1.9-4.3-4.3s1.9-4.3,4.3-4.3h8.5c2.4,0,4.3,1.9,4.3,4.3
				C-280.1,420.4-282,422.3-284.3,422.3z"/>
		</g>
		<g>
			<path class="st3" d="M-275.8,439.4h-25.6c-2.4,0-4.3-1.9-4.3-4.3s1.9-4.3,4.3-4.3h25.6c2.4,0,4.3,1.9,4.3,4.3
				S-273.4,439.4-275.8,439.4z"/>
		</g>
		<g>
			<path class="st4" d="M-284.3,388.2h-8.5c-2.4,0-4.3-1.9-4.3-4.3s1.9-4.3,4.3-4.3h8.5c2.4,0,4.3,1.9,4.3,4.3
				C-280.1,386.3-282,388.2-284.3,388.2z"/>
		</g>
		<g>
			<path class="st5" d="M-275.8,371.1h-25.6c-2.4,0-4.3-1.9-4.3-4.3s1.9-4.3,4.3-4.3h25.6c2.4,0,4.3,1.9,4.3,4.3
				S-273.4,371.1-275.8,371.1z"/>
		</g>
		<g>
			<path class="st2" d="M-233.1,422.3h-8.5c-2.4,0-4.3-1.9-4.3-4.3s1.9-4.3,4.3-4.3h8.5c2.4,0,4.3,1.9,4.3,4.3
				C-228.9,420.4-230.8,422.3-233.1,422.3z"/>
		</g>
		<g>
			<path class="st3" d="M-224.6,439.4h-25.6c-2.4,0-4.3-1.9-4.3-4.3s1.9-4.3,4.3-4.3h25.6c2.4,0,4.3,1.9,4.3,4.3
				S-222.2,439.4-224.6,439.4z"/>
		</g>
		<g>
			<path class="st4" d="M-233.1,388.2h-8.5c-2.4,0-4.3-1.9-4.3-4.3s1.9-4.3,4.3-4.3h8.5c2.4,0,4.3,1.9,4.3,4.3
				C-228.9,386.3-230.8,388.2-233.1,388.2z"/>
		</g>
		<g>
			<path class="st6" d="M-258.1,388.2h-9.5c-2.4,0-4.3-1.9-4.3-4.3s1.9-4.3,4.3-4.3h9.5c2.4,0,4.3,1.9,4.3,4.3
				C-253.9,386.3-255.8,388.2-258.1,388.2z"/>
		</g>
		<g>
			<path class="st6" d="M-258.1,422.3h-9.5c-2.4,0-4.3-1.9-4.3-4.3s1.9-4.3,4.3-4.3h9.5c2.4,0,4.3,1.9,4.3,4.3
				C-253.9,420.4-255.8,422.3-258.1,422.3z"/>
		</g>
		<g>
			<path class="st5" d="M-224.6,371.1h-25.6c-2.4,0-4.3-1.9-4.3-4.3s1.9-4.3,4.3-4.3h25.6c2.4,0,4.3,1.9,4.3,4.3
				S-222.2,371.1-224.6,371.1z"/>
		</g>
	</g>
</g>
<g class="st7">
	<g class="st8">
		<g>
			<path class="st9" d="M-384.6,738.3h-76.8c-2.4,0-4.3-1.9-4.3-4.3s1.9-4.3,4.3-4.3h76.8c2.4,0,4.3,1.9,4.3,4.3
				C-380.3,736.4-382.2,738.3-384.6,738.3z"/>
		</g>
		<g>
			<path class="st9" d="M-444.3,755.3h-8.5c-2.4,0-4.3-1.9-4.3-4.3s1.9-4.3,4.3-4.3h8.5c2.4,0,4.3,1.9,4.3,4.3
				C-440.1,753.4-442,755.3-444.3,755.3z"/>
		</g>
		<g>
			<path class="st9" d="M-435.8,772.4h-25.6c-2.4,0-4.3-1.9-4.3-4.3c0-2.4,1.9-4.3,4.3-4.3h25.6c2.4,0,4.3,1.9,4.3,4.3
				C-431.5,770.5-433.4,772.4-435.8,772.4z"/>
		</g>
		<g>
			<path class="st9" d="M-444.3,721.2h-8.5c-2.4,0-4.3-1.9-4.3-4.3s1.9-4.3,4.3-4.3h8.5c2.4,0,4.3,1.9,4.3,4.3
				C-440.1,719.3-442,721.2-444.3,721.2z"/>
		</g>
		<g>
			<path class="st9" d="M-435.8,704.1h-25.6c-2.4,0-4.3-1.9-4.3-4.3c0-2.4,1.9-4.3,4.3-4.3h25.6c2.4,0,4.3,1.9,4.3,4.3
				C-431.5,702.2-433.4,704.1-435.8,704.1z"/>
		</g>
		<g>
			<path class="st9" d="M-393.1,755.3h-8.5c-2.4,0-4.3-1.9-4.3-4.3s1.9-4.3,4.3-4.3h8.5c2.4,0,4.3,1.9,4.3,4.3
				C-388.9,753.4-390.8,755.3-393.1,755.3z"/>
		</g>
		<g>
			<path class="st9" d="M-384.6,772.4h-25.6c-2.4,0-4.3-1.9-4.3-4.3c0-2.4,1.9-4.3,4.3-4.3h25.6c2.4,0,4.3,1.9,4.3,4.3
				C-380.3,770.5-382.2,772.4-384.6,772.4z"/>
		</g>
		<g>
			<path class="st9" d="M-393.1,721.2h-8.5c-2.4,0-4.3-1.9-4.3-4.3s1.9-4.3,4.3-4.3h8.5c2.4,0,4.3,1.9,4.3,4.3
				C-388.9,719.3-390.8,721.2-393.1,721.2z"/>
		</g>
		<g>
			<path class="st10" d="M-418.1,721.2h-9.5c-2.4,0-4.3-1.9-4.3-4.3s1.9-4.3,4.3-4.3h9.5c2.4,0,4.3,1.9,4.3,4.3
				C-413.9,719.3-415.8,721.2-418.1,721.2z"/>
		</g>
		<g>
			<path class="st10" d="M-418.1,755.3h-9.5c-2.4,0-4.3-1.9-4.3-4.3s1.9-4.3,4.3-4.3h9.5c2.4,0,4.3,1.9,4.3,4.3
				C-413.9,753.4-415.8,755.3-418.1,755.3z"/>
		</g>
		<g>
			<path class="st9" d="M-384.6,704.1h-25.6c-2.4,0-4.3-1.9-4.3-4.3c0-2.4,1.9-4.3,4.3-4.3h25.6c2.4,0,4.3,1.9,4.3,4.3
				C-380.3,702.2-382.2,704.1-384.6,704.1z"/>
		</g>
	</g>
</g>
</svg>
