<?xml version="1.0" encoding="utf-8"?>
<!-- Generator: Adobe Illustrator 19.1.0, SVG Export Plug-In . SVG Version: 6.00 Build 0)  -->
<!DOCTYPE svg PUBLIC "-//W3C//DTD SVG 1.1//EN" "http://www.w3.org/Graphics/SVG/1.1/DTD/svg11.dtd">
<svg version="1.1" id="Layer_1" xmlns="http://www.w3.org/2000/svg" xmlns:xlink="http://www.w3.org/1999/xlink" x="0px" y="0px"
	 viewBox="-339 333 136 136" style="enable-background:new -339 333 136 136;" xml:space="preserve">
<style type="text/css">
	.st0{fill:#1F1C30;}
	.st1{fill:#FFD963;}
	.st2{fill:#4BD96E;}
	.st3{fill:#5ABAF9;}
	.st4{fill:#FFAA00;}
	.st5{fill:#FF3651;}
	.st6{fill:#35334C;}
</style>
<g>
	<path class="st0" d="M-203,426.5c0,17,0,25.5-8.5,34s-17,8.5-34,8.5h-51c-17,0-25.5,0-34-8.5s-8.5-17-8.5-34v-51
		c0-17,0-25.5,8.5-34s17-8.5,34-8.5h51c17,0,25.5,0,34,8.5s8.5,17,8.5,34V426.5z"/>
	<g>
		<g>
			<path class="st1" d="M-232.6,405.3h-76.8c-2.4,0-4.3-1.9-4.3-4.3s1.9-4.3,4.3-4.3h76.8c2.4,0,4.3,1.9,4.3,4.3
				C-228.3,403.4-230.2,405.3-232.6,405.3z"/>
		</g>
		<g>
			<path class="st2" d="M-292.3,422.3h-8.5c-2.4,0-4.3-1.9-4.3-4.3s1.9-4.3,4.3-4.3h8.5c2.4,0,4.3,1.9,4.3,4.3
				C-288.1,420.4-290,422.3-292.3,422.3z"/>
		</g>
		<g>
			<path class="st3" d="M-283.8,439.4h-25.6c-2.4,0-4.3-1.9-4.3-4.3s1.9-4.3,4.3-4.3h25.6c2.4,0,4.3,1.9,4.3,4.3
				S-281.4,439.4-283.8,439.4z"/>
		</g>
		<g>
			<path class="st4" d="M-292.3,388.2h-8.5c-2.4,0-4.3-1.9-4.3-4.3s1.9-4.3,4.3-4.3h8.5c2.4,0,4.3,1.9,4.3,4.3
				C-288.1,386.3-290,388.2-292.3,388.2z"/>
		</g>
		<g>
			<path class="st5" d="M-283.8,371.1h-25.6c-2.4,0-4.3-1.9-4.3-4.3c0-2.4,1.9-4.3,4.3-4.3h25.6c2.4,0,4.3,1.9,4.3,4.3
				C-279.5,369.2-281.4,371.1-283.8,371.1z"/>
		</g>
		<g>
			<path class="st2" d="M-241.1,422.3h-8.5c-2.4,0-4.3-1.9-4.3-4.3s1.9-4.3,4.3-4.3h8.5c2.4,0,4.3,1.9,4.3,4.3
				C-236.9,420.4-238.8,422.3-241.1,422.3z"/>
		</g>
		<g>
			<path class="st3" d="M-232.6,439.4h-25.6c-2.4,0-4.3-1.9-4.3-4.3s1.9-4.3,4.3-4.3h25.6c2.4,0,4.3,1.9,4.3,4.3
				C-228.3,437.5-230.2,439.4-232.6,439.4z"/>
		</g>
		<g>
			<path class="st4" d="M-241.1,388.2h-8.5c-2.4,0-4.3-1.9-4.3-4.3s1.9-4.3,4.3-4.3h8.5c2.4,0,4.3,1.9,4.3,4.3
				C-236.9,386.3-238.8,388.2-241.1,388.2z"/>
		</g>
		<g>
			<path class="st6" d="M-266.1,388.2h-9.5c-2.4,0-4.3-1.9-4.3-4.3s1.9-4.3,4.3-4.3h9.5c2.4,0,4.3,1.9,4.3,4.3
				C-261.9,386.3-263.8,388.2-266.1,388.2z"/>
		</g>
		<g>
			<path class="st6" d="M-266.1,422.3h-9.5c-2.4,0-4.3-1.9-4.3-4.3s1.9-4.3,4.3-4.3h9.5c2.4,0,4.3,1.9,4.3,4.3
				C-261.9,420.4-263.8,422.3-266.1,422.3z"/>
		</g>
		<g>
			<path class="st5" d="M-232.6,371.1h-25.6c-2.4,0-4.3-1.9-4.3-4.3c0-2.4,1.9-4.3,4.3-4.3h25.6c2.4,0,4.3,1.9,4.3,4.3
				C-228.3,369.2-230.2,371.1-232.6,371.1z"/>
		</g>
	</g>
</g>
</svg>
